<?xml version="1.0" encoding="utf-8"?>
<!-- Generator: Adobe Illustrator 27.4.1, SVG Export Plug-In . SVG Version: 6.00 Build 0)  -->
<svg version="1.1" id="Слой_1" xmlns="http://www.w3.org/2000/svg" xmlns:xlink="http://www.w3.org/1999/xlink" x="0px" y="0px"
	 viewBox="0 0 257 104" style="enable-background:new 0 0 257 104;" xml:space="preserve">
<style type="text/css">
	.st0{font-family:'MyriadPro-Regular';}
	.st1{font-size:23.6377px;}
</style>
<g>
	<g>
		<path d="M126.49,10.47c-6.91,0.76-9.18,1.84-9.5,6.8c-0.11,3.46-0.32,7.99-0.32,18.04v43.31h-4.1L66.33,22.14v27
			c0,9.72,0.32,14.58,0.54,17.71c0.22,5.51,2.92,7.13,10.69,7.78v3.02H51.32v-3.02c6.7-0.54,9.29-2.16,9.72-7.45
			c0.32-3.46,0.54-8.32,0.54-18.14V21.49c0-3.02-0.22-4.75-2.16-7.13c-2.05-2.7-4.32-3.35-9.61-3.89V7.45h16.2l45.79,54.32V35.31
			c0-10.04-0.22-14.69-0.54-17.93c-0.32-4.86-2.81-6.37-11.45-6.91V7.45h26.68V10.47z"/>
		<path d="M172.5,68.47c-6.91,8.64-14.47,10.48-17.93,10.48c-13.18,0-21.17-10.8-21.17-23.22c0-7.34,2.59-14.15,7.02-18.9
			c4.54-5.08,10.48-7.88,16.09-7.88c9.4,0,16.52,8.1,16.52,16.74c-0.11,2.16-0.43,3.13-2.16,3.56c-2.16,0.43-15.98,1.4-28.84,1.84
			c-0.32,14.47,8.53,20.41,16.2,20.41c4.43,0,8.53-1.84,12.53-5.51L172.5,68.47z M153.92,33.05c-4.97,0-9.83,4.64-11.34,13.39
			c6.05,0,12.1,0,18.47-0.32c1.94,0,2.59-0.54,2.59-2.16C163.75,38.23,159.97,33.05,153.92,33.05z"/>
		<path d="M218.29,23.87c-1.84-7.13-4.86-14.15-15.01-14.15c-8.42,0-11.34,6.16-11.34,11.77c0,7.45,4.75,11.23,13.72,15.88
			c12.96,6.7,18.58,11.66,18.58,21.92c0,11.34-9.83,19.98-23.76,19.98c-6.48,0-12.1-1.84-16.52-3.56
			c-0.86-3.02-2.16-10.37-2.92-16.2l3.35-0.86c2.16,7.24,6.91,16.63,18.14,16.63c7.78,0,12.53-5.4,12.53-12.42
			c0-8.32-4.43-11.66-13.93-16.85c-11.34-6.16-17.71-11.34-17.71-21.38c0-9.61,7.99-18.68,22.25-18.68c6.05,0,11.99,1.62,14.26,2.05
			c0.43,3.89,0.86,8.21,1.73,15.23L218.29,23.87z"/>
	</g>
</g>
<text transform="matrix(0.8884 0 0 1 -0.353 99.0898)" class="st0 st1">Чат управляющей компании</text>
<polyline points="19.98,78 19.98,46.81 0,38 50,38 "/>
</svg>
